<?xml version="1.0" encoding="UTF-8"?>
<svg xmlns="http://www.w3.org/2000/svg" width="81.75" height="101.76" xmlns:xlink="http://www.w3.org/1999/xlink" viewBox="0 0 81.75 101.76">
  <defs>
    <style>
      .cls-1 {
        stroke: #252d32;
        stroke-miterlimit: 10;
      }

      .cls-1, .cls-2 {
        fill: none;
      }

      .cls-3 {
        fill: #6e7a82;
      }

      .cls-4 {
        fill: #4a5963;
      }

      .cls-5 {
        clip-path: url(#clippath);
      }

      .cls-6 {
        clip-path: url(#clippath-1);
      }
    </style>
    <clipPath id="clippath">
      <rect class="cls-2" width="81.75" height="101.76"/>
    </clipPath>
    <clipPath id="clippath-1">
      <rect class="cls-2" y="0" width="81.75" height="101.76"/>
    </clipPath>
  </defs>
  <g id="Calque_1" data-name="Calque 1"/>
  <g id="Calque_2" data-name="Calque 2">
    <g id="Bas_Femme" data-name="Bas Femme">
      <g id="Pantalon">
        <g class="cls-5">
          <g class="cls-6">
            <path class="cls-4" d="M81.75,25.78V101.41c-9.98,1.76-26.46-3.56-32.29-5.62V38.71l-15.86-5.98v58.71c-10.08,1.69-26.62-3.69-32.29-5.71V17.43c-1.66-3.77-1.8-8.5-.11-13.37L2.61,0c.55,.17,1.12,.34,1.72,.51,6.58,1.89,16.02,3.87,28.69,4.88,11.8,.95,26.4,1.07,44.09-.49,2.19,4.03,3.73,9.06,4.27,14.6,.13,1.34,.19,2.68,.2,3.98h0c.11,.76,.17,1.52,.17,2.3"/>
            <path class="cls-3" d="M33.6,81.62v9.82c-10.08,1.69-26.62-3.69-32.29-5.71v-10.21c15.93,3.77,25.96,6.35,32.29,6.1"/>
            <path class="cls-3" d="M81.6,91.62v9.82c-10.08,1.69-26.62-3.69-32.29-5.71v-10.21c15.93,3.77,25.96,6.35,32.29,6.1"/>
            <line class="cls-1" x1="36.33" y1="6.01" x2="36.33" y2="25.01"/>
            <path class="cls-4" d="M42.61,10.14c-.35,.43-.97,.5-1.41,.16-.43-.35-.5-.97-.16-1.41,.34-.43,.97-.5,1.41-.16s.5,.97,.16,1.41"/>
            <path class="cls-1" d="M42.61,10.14c-.35,.43-.97,.5-1.41,.16-.43-.35-.5-.97-.16-1.41,.34-.43,.97-.5,1.41-.16s.5,.97,.16,1.41Z"/>
            <path class="cls-4" d="M42.61,15.14c-.35,.43-.97,.5-1.41,.16-.43-.35-.5-.97-.16-1.41,.34-.43,.97-.5,1.41-.16s.5,.97,.16,1.41"/>
            <path class="cls-1" d="M42.61,15.14c-.35,.43-.97,.5-1.41,.16-.43-.35-.5-.97-.16-1.41,.34-.43,.97-.5,1.41-.16s.5,.97,.16,1.41Z"/>
            <path class="cls-4" d="M41.93,20.51c-.55,.06-1.04-.34-1.1-.89-.06-.55,.34-1.04,.89-1.1,.55-.06,1.04,.34,1.1,.89,.06,.55-.34,1.04-.89,1.1"/>
            <path class="cls-1" d="M41.93,20.51c-.55,.06-1.04-.34-1.1-.89-.06-.55,.34-1.04,.89-1.1,.55-.06,1.04,.34,1.1,.89,.06,.55-.34,1.04-.89,1.1Z"/>
            <path class="cls-4" d="M42.03,25.49c-.54,.11-1.07-.24-1.18-.78-.11-.54,.24-1.07,.78-1.18,.54-.11,1.07,.24,1.18,.78,.11,.54-.24,1.07-.78,1.18"/>
            <path class="cls-1" d="M42.03,25.49c-.54,.11-1.07-.24-1.18-.78-.11-.54,.24-1.07,.78-1.18,.54-.11,1.07,.24,1.18,.78,.11,.54-.24,1.07-.78,1.18Z"/>
          </g>
        </g>
      </g>
    </g>
  </g>
</svg>