<?xml version="1.0" encoding="UTF-8"?>
<svg xmlns="http://www.w3.org/2000/svg" width="82" height="101.76" xmlns:xlink="http://www.w3.org/1999/xlink" viewBox="0 0 82 101.76">
  <defs>
    <style>
      .cls-1 {
        stroke: #252d32;
        stroke-miterlimit: 10;
        stroke-width: 1px;
      }

      .cls-1, .cls-2 {
        fill: none;
      }

      .cls-3 {
        fill: #6e7a82;
      }

      .cls-4 {
        fill: #4a5963;
      }

      .cls-5 {
        clip-path: url(#clippath);
      }

      .cls-6 {
        clip-path: url(#clippath-1);
      }
    </style>
    <clipPath id="clippath">
      <rect class="cls-2" width="82" height="101.76"/>
    </clipPath>
    <clipPath id="clippath-1">
      <rect class="cls-2" y="0" width="82" height="101.76"/>
    </clipPath>
  </defs>
  <g id="Calque_1" data-name="Calque 1"/>
  <g id="Calque_2" data-name="Calque 2">
    <g id="Bas_Femme" data-name="Bas Femme">
      <g id="Short">
        <g class="cls-5">
          <g class="cls-6">
            <path class="cls-4" d="M82,25.78V62.41c-10.01,1.76-26.54-3.56-32.39-5.62v-18.08l-15.91-5.98v20.71c-10.11,1.69-26.7-3.69-32.39-5.71V17.43c-1.67-3.77-1.81-8.5-.11-13.37L2.62,0c.55,.17,1.12,.34,1.73,.51,6.6,1.89,16.07,3.87,28.78,4.88,11.84,.95,26.48,1.07,44.22-.49,2.2,4.03,3.74,9.06,4.28,14.6,.13,1.34,.19,2.68,.2,3.98h0c.11,.76,.17,1.52,.17,2.3"/>
            <path class="cls-3" d="M33.7,43.62v9.82c-10.11,1.69-26.7-3.69-32.39-5.71v-10.21c15.98,3.77,26.04,6.35,32.39,6.1"/>
            <path class="cls-3" d="M81.85,52.62v9.82c-10.11,1.69-26.7-3.69-32.39-5.71v-10.21c15.98,3.77,26.04,6.35,32.39,6.1"/>
            <line class="cls-1" x1="36.44" y1="6.01" x2="36.44" y2="25.01"/>
            <path class="cls-4" d="M42.74,10.14c-.35,.43-.98,.5-1.41,.16-.43-.35-.5-.97-.16-1.41,.35-.43,.98-.5,1.41-.16s.5,.97,.16,1.41"/>
            <path class="cls-1" d="M42.74,10.14c-.35,.43-.98,.5-1.41,.16-.43-.35-.5-.97-.16-1.41,.35-.43,.98-.5,1.41-.16s.5,.97,.16,1.41Z"/>
            <path class="cls-4" d="M42.74,15.14c-.35,.43-.98,.5-1.41,.16-.43-.35-.5-.97-.16-1.41,.35-.43,.98-.5,1.41-.16s.5,.97,.16,1.41"/>
            <path class="cls-1" d="M42.74,15.14c-.35,.43-.98,.5-1.41,.16-.43-.35-.5-.97-.16-1.41,.35-.43,.98-.5,1.41-.16s.5,.97,.16,1.41Z"/>
            <path class="cls-4" d="M42.06,20.51c-.55,.06-1.04-.34-1.1-.89-.06-.55,.35-1.04,.9-1.1,.55-.06,1.04,.34,1.1,.89,.06,.55-.35,1.04-.9,1.1"/>
            <path class="cls-1" d="M42.06,20.51c-.55,.06-1.04-.34-1.1-.89-.06-.55,.35-1.04,.9-1.1,.55-.06,1.04,.34,1.1,.89,.06,.55-.35,1.04-.9,1.1Z"/>
            <path class="cls-4" d="M42.16,25.49c-.54,.11-1.07-.24-1.18-.78-.11-.54,.24-1.07,.79-1.18,.54-.11,1.07,.24,1.18,.78,.11,.54-.24,1.07-.79,1.18"/>
            <path class="cls-1" d="M42.16,25.49c-.54,.11-1.07-.24-1.18-.78-.11-.54,.24-1.07,.79-1.18,.54-.11,1.07,.24,1.18,.78,.11,.54-.24,1.07-.79,1.18Z"/>
          </g>
        </g>
      </g>
    </g>
  </g>
</svg>