<?xml version="1.0" encoding="UTF-8"?>
<svg xmlns="http://www.w3.org/2000/svg" width="108.35" height="37.26" xmlns:xlink="http://www.w3.org/1999/xlink" viewBox="0 0 108.35 37.26">
  <defs>
    <style>
      .cls-1 {
        fill: #8c6239;
      }

      .cls-2 {
        clip-path: url(#clippath);
      }

      .cls-3 {
        fill: none;
      }

      .cls-4 {
        clip-path: url(#clippath-1);
      }

      .cls-5 {
        fill: #f2f2f2;
      }
    </style>
    <clipPath id="clippath">
      <rect class="cls-3" width="108.35" height="37.26"/>
    </clipPath>
    <clipPath id="clippath-1">
      <rect class="cls-3" y="0" width="108.35" height="37.26"/>
    </clipPath>
  </defs>
  <g id="Calque_1" data-name="Calque 1"/>
  <g id="Calque_2" data-name="Calque 2">
    <g id="Yeux_Femme" data-name="Yeux Femme">
      <g id="Yeux_bridés" data-name="Yeux bridés">
        <g class="cls-2">
          <g class="cls-4">
            <path class="cls-5" d="M75.03,35.88h-8.7c-5.52,0-10-4.48-10-10,0-12.88,10.44-23.31,23.31-23.31h28.7c0,18.4-14.92,33.31-33.31,33.31"/>
            <path class="cls-1" d="M90.96,20.92c0,5.86-4.75,10.62-10.62,10.62s-10.62-4.75-10.62-10.62,4.75-10.62,10.62-10.62,10.62,4.75,10.62,10.62"/>
            <path d="M85.42,21.38c0,2.55-2.07,4.62-4.62,4.62s-4.62-2.07-4.62-4.62,2.07-4.62,4.62-4.62,4.62,2.07,4.62,4.62"/>
            <path class="cls-5" d="M29.22,37.18l-6.6-.84C8.43,34.52-1.6,21.54,.21,7.36L1.15,0,20.24,2.44c12.77,1.63,21.8,13.31,20.17,26.08-.7,5.48-5.71,9.35-11.19,8.65"/>
            <path class="cls-1" d="M29.33,19.07c0,5.86-3.46,10.62-7.73,10.62s-7.73-4.75-7.73-10.62,3.46-10.62,7.73-10.62,7.73,4.75,7.73,10.62"/>
            <path d="M25.3,18.61c0,2.55-1.5,4.62-3.36,4.62s-3.36-2.07-3.36-4.62,1.5-4.62,3.36-4.62,3.36,2.07,3.36,4.62"/>
          </g>
        </g>
      </g>
    </g>
  </g>
</svg>