<?xml version="1.0" encoding="UTF-8"?>
<svg xmlns="http://www.w3.org/2000/svg" width="104.63" height="34.49" xmlns:xlink="http://www.w3.org/1999/xlink" viewBox="0 0 104.63 34.49">
  <defs>
    <style>
      .cls-1 {
        fill: #8c6239;
      }

      .cls-2 {
        clip-path: url(#clippath);
      }

      .cls-3 {
        fill: none;
      }

      .cls-4 {
        clip-path: url(#clippath-1);
      }

      .cls-5 {
        fill: #f2f2f2;
      }
    </style>
    <clipPath id="clippath">
      <rect class="cls-3" width="104.63" height="34.49"/>
    </clipPath>
    <clipPath id="clippath-1">
      <rect class="cls-3" y="0" width="104.63" height="34.49"/>
    </clipPath>
  </defs>
  <g id="Calque_1" data-name="Calque 1"/>
  <g id="Calque_2" data-name="Calque 2">
    <g id="Yeux_Femme" data-name="Yeux Femme">
      <g id="yeux_moyens" data-name="yeux moyens">
        <g class="cls-2">
          <g class="cls-4">
            <path class="cls-5" d="M87.97,33.7h-18.7c-9.2,0-16.66-7.46-16.66-16.66S60.07,.39,69.27,.39h18.7c9.2,0,16.66,7.46,16.66,16.66s-7.46,16.66-16.66,16.66"/>
            <path class="cls-1" d="M87.24,18.74c0,5.86-4.75,10.62-10.62,10.62s-10.62-4.75-10.62-10.62,4.75-10.62,10.62-10.62,10.62,4.75,10.62,10.62"/>
            <path d="M81.7,19.2c0,2.55-2.07,4.62-4.62,4.62s-4.62-2.07-4.62-4.62,2.07-4.62,4.62-4.62,4.62,2.07,4.62,4.62"/>
            <path class="cls-5" d="M23.71,34.35l-9.17-1.17C5.42,32.01-1.03,23.67,.14,14.54,1.3,5.42,9.65-1.03,18.77,.14l9.17,1.17c9.12,1.17,15.58,9.51,14.41,18.64-1.17,9.12-9.51,15.58-18.64,14.41"/>
            <path class="cls-1" d="M30.43,17.09c0,5.86-3.46,10.62-7.73,10.62s-7.73-4.75-7.73-10.62,3.46-10.62,7.73-10.62,7.73,4.75,7.73,10.62"/>
            <path d="M26.4,16.63c0,2.55-1.5,4.62-3.36,4.62s-3.36-2.07-3.36-4.62,1.5-4.62,3.36-4.62,3.36,2.07,3.36,4.62"/>
          </g>
        </g>
      </g>
    </g>
  </g>
</svg>