<?xml version="1.0" encoding="UTF-8"?>
<svg xmlns="http://www.w3.org/2000/svg" width="107.39" height="58.17" xmlns:xlink="http://www.w3.org/1999/xlink" viewBox="0 0 107.39 58.17">
  <defs>
    <style>
      .cls-1 {
        stroke: #000;
        stroke-miterlimit: 10;
        stroke-width: .25px;
      }

      .cls-1, .cls-2 {
        fill: none;
      }

      .cls-3 {
        fill: #39b54a;
      }

      .cls-4 {
        clip-path: url(#clippath);
      }

      .cls-5 {
        clip-path: url(#clippath-1);
      }

      .cls-6 {
        fill: #f2f2f2;
      }
    </style>
    <clipPath id="clippath">
      <rect class="cls-2" width="107.39" height="58.17"/>
    </clipPath>
    <clipPath id="clippath-1">
      <rect class="cls-2" y="0" width="107.39" height="58.17"/>
    </clipPath>
  </defs>
  <g id="Calque_1" data-name="Calque 1"/>
  <g id="Calque_2" data-name="Calque 2">
    <g id="Yeux_Femme" data-name="Yeux Femme">
      <g id="Gros_yeux" data-name="Gros yeux">
        <g class="cls-4">
          <g class="cls-5">
            <path class="cls-6" d="M107.39,29.08c0,16.06-12.61,29.08-28.16,29.08s-28.16-13.02-28.16-29.08S63.68,0,79.23,0s28.16,13.02,28.16,29.08"/>
            <path class="cls-3" d="M89.85,30.01c0,5.86-4.75,10.62-10.62,10.62s-10.62-4.75-10.62-10.62,4.75-10.62,10.62-10.62,10.62,4.75,10.62,10.62"/>
            <path d="M84.31,30.47c0,2.55-2.07,4.62-4.62,4.62s-4.62-2.07-4.62-4.62,2.07-4.62,4.62-4.62,4.62,2.07,4.62,4.62"/>
            <path class="cls-1" d="M84.31,30.47c0,2.55-2.07,4.62-4.62,4.62s-4.62-2.07-4.62-4.62,2.07-4.62,4.62-4.62,4.62,2.07,4.62,4.62Z"/>
            <path class="cls-6" d="M40.98,28.16c0,15.55-9.17,28.16-20.49,28.16S0,43.71,0,28.16,9.17,0,20.49,0s20.49,12.61,20.49,28.16"/>
            <path class="cls-3" d="M28.22,28.16c0,5.86-3.46,10.62-7.73,10.62s-7.73-4.75-7.73-10.62,3.46-10.62,7.73-10.62,7.73,4.75,7.73,10.62"/>
            <path d="M24.18,27.7c0,2.55-1.5,4.62-3.36,4.62s-3.36-2.07-3.36-4.62,1.5-4.62,3.36-4.62,3.36,2.07,3.36,4.62"/>
            <path class="cls-1" d="M24.18,27.7c0,2.55-1.5,4.62-3.36,4.62s-3.36-2.07-3.36-4.62,1.5-4.62,3.36-4.62,3.36,2.07,3.36,4.62Z"/>
          </g>
        </g>
      </g>
    </g>
  </g>
</svg>