<?xml version="1.0" encoding="UTF-8"?>
<svg xmlns="http://www.w3.org/2000/svg" width="181.29" height="266.01" xmlns:xlink="http://www.w3.org/1999/xlink" viewBox="0 0 181.29 266.01">
  <defs>
    <style>
      .cls-1 {
        fill: #f4dcb0;
      }

      .cls-2 {
        clip-path: url(#clippath);
      }

      .cls-3 {
        fill: #f0d196;
      }

      .cls-4 {
        fill: none;
      }

      .cls-5 {
        clip-path: url(#clippath-1);
      }
    </style>
    <clipPath id="clippath">
      <rect class="cls-4" width="181.29" height="266.01"/>
    </clipPath>
    <clipPath id="clippath-1">
      <rect class="cls-4" width="181.29" height="266.01"/>
    </clipPath>
  </defs>
  <g id="Calque_1" data-name="Calque 1"/>
  <g id="Calque_2" data-name="Calque 2">
    <g id="Cheveux_Femme" data-name="Cheveux Femme">
      <g id="Devant_cheveuxlong" data-name="Devant cheveuxlong">
        <g class="cls-2">
          <g class="cls-5">
            <path class="cls-3" d="M181.08,108.98C185.42,23.5,122.66-13.91,64.9,4.65c-1.07,.35-2.08,.86-3.01,1.52-2.64,1.87-8.09,5.73-8.1,5.73C31.36,15.76,0,40.02,0,82.41l12.1,122.48s1.99,8.65,2.01,8.65l7.87,12.99s12.63,12.1,12.63,12.07l-12.92-72.9-4.68-79.98s-2.03-.02-4.34-.03c18.38-1.78,52.8-15.84,54.96-26.91,.02,0,.02,0,.03-.02,4.79,2.32,9.9,4.44,15.26,6.29,20.38,7.03,39.1,8.29,50.11,4.36,.02,0,.04,.01,.04,.04l-4.6,136.4-15.58,60.15,45.18-21.79s18.09-38.4,23-135.24"/>
            <path class="cls-1" d="M10.49,75.2s53.27-8.1,51.87-20.71c0,0-16.82,11.71-51.87,20.71"/>
            <path class="cls-1" d="M118.45,56.09s-39.24,3.94-40.57-8.62c0,0,14.08,7.64,40.57,8.62"/>
            <path class="cls-1" d="M77.54,17.11s25.45-.44,64.26,33.67c0,0-38.05-45.36-64.26-33.67"/>
            <path class="cls-1" d="M144.02,26.28s19.31,16.33,25.3,67.23c0,0,2.17-58.8-25.3-67.23"/>
            <path class="cls-1" d="M8.86,65.37S11.67,30.25,54.43,21.24c0,0-36.45,17.11-45.56,44.13"/>
            <path class="cls-1" d="M151.03,60.57s15.94,62.78,5.25,120.77c0,0,6.73-57.15-5.25-120.77"/>
            <path class="cls-1" d="M148.4,89.22s8.58,64.16-8.75,120.57c0,0,13.29-56.03,8.75-120.57"/>
            <path class="cls-1" d="M166.83,108.15s8.58,64.16-8.75,120.57c0,0,13.29-56.03,8.75-120.57"/>
            <path class="cls-1" d="M6.84,80.37S.58,144.79,19.94,200.56c0,0-15.31-55.53-13.1-120.19"/>
            <path class="cls-1" d="M21.69,64.84s7.18-23.34,29.51-30.62c0,0-19.65,9.32-29.51,30.62"/>
            <path class="cls-1" d="M83.47,31.69s24.76,.11,38.23,19.1c0,0-14.68-15.88-38.23-19.1"/>
          </g>
        </g>
      </g>
    </g>
  </g>
</svg>