<?xml version="1.0" encoding="UTF-8"?>
<svg xmlns="http://www.w3.org/2000/svg" width="178.98" height="230.87" xmlns:xlink="http://www.w3.org/1999/xlink" viewBox="0 0 178.98 230.87">
  <defs>
    <style>
      .cls-1 {
        fill: #8c6239;
      }

      .cls-2 {
        clip-path: url(#clippath);
      }

      .cls-3 {
        fill: none;
      }

      .cls-4 {
        clip-path: url(#clippath-1);
      }

      .cls-5 {
        fill: #a38161;
      }
    </style>
    <clipPath id="clippath">
      <rect class="cls-3" width="178.98" height="230.87"/>
    </clipPath>
    <clipPath id="clippath-1">
      <rect class="cls-3" width="178.98" height="230.87"/>
    </clipPath>
  </defs>
  <g id="Calque_1" data-name="Calque 1"/>
  <g id="Calque_2" data-name="Calque 2">
    <g id="Cheveux_Femme" data-name="Cheveux Femme">
      <g id="Illustration_6" data-name="Illustration 6">
        <g class="cls-2">
          <g class="cls-4">
            <path class="cls-1" d="M170.33,186.76c.08-.65,.26-1.29,.52-1.9,4.57-10.79,8.95-33.56,6.21-47.57-.28-1.44-.06-2.9,.43-4.28,2.14-5.95-.97-20.49-.04-24.24,1.97-7.87,1.69-13.78,1.03-20.67-.02-.22-.03-.44-.03-.66,.02-12.1,1.18-23.93-5.58-32.12-.86-1.04-1.39-2.29-1.54-3.63-1.02-9.09-8.41-20.47-16.94-25.02-1.23-.66-2.21-1.67-2.84-2.91-3.86-7.67-9.92-9.06-16.81-11.52-.85-.3-1.61-.81-2.27-1.42-5.39-4.99-11.93-7.8-20.04-8.04-1.05-.03-2.09-.3-3-.82-1.08-.61-2.16-1.35-3.25-1.5-6.42-.85-13.75-.72-19.76,1.77-.8,.33-1.67,.54-2.54,.51-5.08-.12-5.33-.85-10.43,.7-.65,.2-1.28,.5-1.83,.89-1.07,.77-2.41,1.82-3.59,3.35-1.92,2.5-5.24,3.43-8.17,2.26-3.9-1.56-7.36-.88-9.42-.19-7.26,2.42-15.49,7.12-19.13,14.82-.65,1.38-1.81,2.46-3.21,3.07-7.29,3.18-13.53,9.45-15.28,15.37-.33,1.12-.89,2.16-1.73,2.98-6.38,6.21-9.81,14.38-9.06,21.44,.15,1.42-.11,2.87-.82,4.1-2.19,3.84-.8,6.57-.69,10.13,0,.28,.03,.57,.08,.85l4.75,28.71c.06,.34,.09,.69,.09,1.04v18.95c0,.34,.02,.68,.07,1.01l3.88,24.23c.03,.19,.05,.39,.07,.58l4.15,22.19c.02,.24,.05,.47,.1,.71,.3,1.29,1.34,5.82,1.76,7.58,.11,.47,.29,.92,.54,1.33l5.05,4.64c.29,.48,.64,.92,1.05,1.3,.46,.44,1.15,1.1,1.98,1.89,3.11,2.97,11.81,5.58,11.38,1.33-.02-.19-.08-.37-.16-.54l-5.72-12.39c-.11-.23-.16-.48-.16-.74l-2-1.24c0-.24-.05-.48-.15-.71l-4.71-16.02c-.11-.42-.29-1.1-.41-1.52l-2.72-24.99c0-.08-.01-.17,0-.25l.99-28.73c0-.09,0-.19-.01-.28l-2.63-20.86c-.14-2.44-2.16-4.34-4.6-4.35,4.41-.43,13.34-2.26,14.98-5.58,.29-.58,1.11-1,1.76-.96,8.81,.45,15.88-3.11,19.02-9.95,.31-.67,1-1.09,1.74-1.04,7.21,.51,13.18-2.47,15.67-5.68,.15-.19,.35-.32,.57-.43,1.13-.55,1.47-1.99,2.18-3.01,.51-.74,1.51-.94,2.3-.52,4.07,2.19,13.14,8.36,18.83,6.94,.74-.18,1.49,.18,1.92,.81,4.49,6.49,15.7,6.6,21.6,4.07,.46-.19,.98-.17,1.44,.02,8.42,3.54,11.68,1.43,18.36-.96,.02,0,.04,.01,.04,.04l2.54,14.29c.85,4.82,.77,9.75-.24,14.53l-4.9,18.6c-.06,.24-.12,.52-.17,.82-.33,1.96-.3,3.96,0,5.92l1.64,10.64c1.3,8.45,1.08,17.07-.65,25.44l-2.54,12.28c-.56,2.7-.81,5.45-.76,8.2l.5,25.17c-.01,.33-.06,.66-.14,.99l-6.95,19.02c-.96,3.72,2.76,6.88,6.23,5.43,.16-.07,.31-.17,.45-.28l15.6-12.81c2.13-1.75,4.61-3.02,7.28-3.72l14.95-3.93"/>
            <path class="cls-5" d="M122.41,60.77s-3.16-5.62-10.18-2.25c-7.02,3.38-13.69-6.18-16.5-5.06-2.81,1.12-4.8,2.16-7.31,3.61,0,0,8.37-8.11,11.18-5.86,2.81,2.25,3.16,7.31,12.29,6.18,9.13-1.12,8.43-1.12,10.53,3.37"/>
            <path class="cls-5" d="M25.78,72.78s1.26-6.32,8.99-5.29c7.72,1.04,11.11-10.12,14.13-9.92,3.02,.2,5.23,.57,8.07,1.17,0,0-10.47-5.12-12.44-2.11-1.98,3.01-.74,7.93-9.77,9.68-9.03,1.76-8.36,1.54-8.97,6.47"/>
            <path class="cls-5" d="M57.37,35.91s-8.22,3.78-13.1,9.7c-4.87,5.92-8.85-.63-10.89,1.58-2.04,2.21-7.64,5.26-9.28,7.56,0,0,8.41-11.3,11.81-11.1,3.4,.2,3.46,2.67,11.1-2.7,7.65-5.37,6.68-7.19,10.36-5.04"/>
            <path class="cls-5" d="M88.45,9.59c14.2-2.58,15.05-1.22,15.05-1.22,0,0,3.66-.43,7.7,3.78,4.04,4.21,8.6-3.29,14.42,4.66,5.82,7.96,7.19-2.53,13.06,6.07,5.87,8.6,4.41,8.72,4.41,8.72,0,0-3.72-9.42-8.92-9.65-5.19-.23-9.86-3.09-12.22-4.84-2.36-1.75-9.65,.4-12.82-2.72-3.18-3.11-4.8-4.93-12.14-4.33-7.34,.6-8.54-.47-8.54-.47"/>
            <path class="cls-5" d="M84.43,35.69c14.26-1.83,15.05-1.22,15.05-1.22,0,0,3.67-.36,7.51,1.45,3.84,1.81,8.71-1.92,14.17,1.57,5.46,3.49,7.27-1.5,12.75,2.29,5.48,3.79,4.01,3.91,4.01,3.91,0,0-3.31-4.27-8.47-4.16-5.16,.12-9.69-1.03-11.97-1.75-2.28-.72-9.63,.6-12.66-.73-3.03-1.33-4.57-2.11-11.92-1.51-7.34,.6-8.49,.15-8.49,.15"/>
            <path class="cls-5" d="M153.51,54.6c6.73,12.71,6.35,13.7,6.35,13.7,0,0,1.61,3.31,.95,7.68-.66,4.37,4.98,7.44,3.05,14.01-1.93,6.58,4.04,6.25,1.8,12.97-2.24,6.72-2.86,5.39-2.86,5.39,0,0,3.49-4.86,1.64-9.69-1.85-4.83-2.13-9.57-2.12-12.01,.02-2.44-3.87-8.84-3.45-12.24,.42-3.4,.74-5.18-2.36-11.86-3.1-6.68-2.99-7.95-2.99-7.95"/>
            <path class="cls-5" d="M144.51,86.6c6.73,12.71,6.35,13.7,6.35,13.7,0,0,1.61,3.31,.95,7.68-.66,4.36,4.98,7.44,3.05,14.01-1.93,6.58,4.04,6.25,1.8,12.97-2.24,6.72-2.86,5.39-2.86,5.39,0,0,3.49-4.86,1.64-9.69-1.85-4.83-2.13-9.57-2.12-12.01,.02-2.44-3.87-8.84-3.45-12.24,.42-3.4,.74-5.18-2.36-11.86-3.1-6.68-2.99-7.95-2.99-7.95"/>
            <path class="cls-5" d="M164.08,144.58c1.93,14.26,1.23,15.05,1.23,15.05,0,0,.37,3.67-1.75,7.53-2.12,3.87,2.1,8.7-1.98,14.21-4.08,5.51,1.64,7.26-2.79,12.79-4.43,5.54-4.55,4.07-4.55,4.07,0,0,4.95-3.36,4.88-8.53-.07-5.17,1.3-9.72,2.16-12,.86-2.29-.58-9.63,.99-12.68,1.56-3.05,2.48-4.6,1.88-11.95-.6-7.34-.07-8.5-.07-8.5"/>
            <path class="cls-5" d="M7.7,83.56c-1.99,14.25-1.3,15.05-1.3,15.05,0,0-.39,3.66,1.72,7.54,2.11,3.88-2.14,8.69,1.91,14.21,4.06,5.53-1.67,7.25,2.73,12.81,4.4,5.56,4.53,4.09,4.53,4.09,0,0-4.94-3.38-4.84-8.55,.1-5.17-1.26-9.72-2.1-12.01-.85-2.29,.62-9.63-.93-12.68-1.55-3.06-2.46-4.61-1.83-11.95,.63-7.34,.1-8.49,.1-8.49"/>
            <path class="cls-5" d="M139.39,122.93c7.49,21.67,6.07,23.25,6.07,23.25,0,0,1.64,5.63-2.32,12.72-3.96,7.09,6.66,12.8-1.36,23.38-8.03,10.58,5.29,10.73-3.51,21.51-8.81,10.78-9.4,8.51-9.4,8.51,0,0,10.47-7.58,9.17-15.72-1.3-8.14,.81-15.96,2.25-19.97,1.44-4.01-3.41-14.97-.54-20.51,2.87-5.54,4.61-8.42,1.65-19.76-2.96-11.34-2.01-13.41-2.01-13.41"/>
            <path class="cls-5" d="M62.56,19.71c-14.6,3.2-15.02,4.48-15.02,4.48,0,0-3.69,1-6.34,5.47-2.65,4.48-9.37,.69-12.62,8.5-3.25,7.81-7.76,.73-10.87,9.03-3.11,8.3-1.64,7.86-1.64,7.86,0,0,.77-8.13,5.75-10.14,4.98-2.01,8.66-5.74,10.42-7.85,1.76-2.11,9.5-3.15,11.65-6.53,2.15-3.38,3.18-5.26,10.5-7.45,7.33-2.19,8.17-3.38,8.17-3.38"/>
          </g>
        </g>
      </g>
    </g>
  </g>
</svg>