<?xml version="1.0" encoding="UTF-8"?>
<svg xmlns="http://www.w3.org/2000/svg" width="250" height="199.04" xmlns:xlink="http://www.w3.org/1999/xlink" viewBox="0 0 250 199.04">
  <defs>
    <style>
      .cls-1 {
        fill: #e8c0a8;
      }

      .cls-2 {
        clip-path: url(#clippath);
      }

      .cls-3 {
        fill: none;
      }

      .cls-4 {
        fill: #1a1a1a;
      }

      .cls-5 {
        clip-path: url(#clippath-1);
      }
    </style>
    <clipPath id="clippath">
      <rect class="cls-3" width="250" height="199.04"/>
    </clipPath>
    <clipPath id="clippath-1">
      <rect class="cls-3" width="250" height="199.04"/>
    </clipPath>
  </defs>
  <g id="Calque_1" data-name="Calque 1"/>
  <g id="Calque_2" data-name="Calque 2">
    <g id="Cheveux_Femme" data-name="Cheveux Femme">
      <g id="Illustration_7" data-name="Illustration 7">
        <g class="cls-2">
          <g class="cls-5">
            <path class="cls-4" d="M250,91c0-5.49-2.87-10.39-7.38-13.69,1.51-2.49,2.38-5.31,2.38-8.31,0-8.66-7.14-15.89-16.65-17.61,.41-1.41,.65-2.87,.65-4.39,0-9.94-9.4-18-21-18-1.74,0-3.42,.2-5.03,.54,0-.18,.03-.36,.03-.54,0-9.94-9.4-18-21-18-3.34,0-6.48,.68-9.28,1.87-3.47-5.85-10.54-9.87-18.72-9.87-5.06,0-9.7,1.53-13.32,4.09C136.84,2.79,130.81,0,124,0,117.58,0,111.85,2.47,108,6.36,104.15,2.47,98.42,0,92,0,81.37,0,72.61,6.78,71.22,15.56c-2.7-1.61-5.84-2.56-9.21-2.56-9.94,0-18,8.06-18,18,0,.16,.02,.31,.02,.47-1.29-.3-2.64-.47-4.02-.47-9.94,0-18,8.06-18,18,0,2.74,.63,5.32,1.72,7.65-1.51-.41-3.09-.65-4.72-.65-9.94,0-18,8.06-18,18,0,4.35,1.54,8.34,4.11,11.45-3.16,3.24-5.11,7.67-5.11,12.55,0,6.67,3.64,12.48,9.03,15.59-3.69,3.3-6.03,8.08-6.03,13.41,0,6.26,3.2,11.77,8.05,14.99-.67,1.88-1.05,3.9-1.05,6.01,0,7.67,4.8,14.19,11.55,16.79-3.29,2.78-5.55,8.54-5.55,15.21,0,9.39,4.48,17,10,17,2.8,0,5.33-1.96,7.15-5.12,3.69-.72,6.77-4.85,8.12-10.5,3.35-1.31,5.74-4.56,5.74-8.38,0-.72-.09-1.41-.25-2.08,1.99-1.65,3.25-4.14,3.25-6.92s-1.36-5.45-3.48-7.1c6.62-1.41,11.89-7.08,12.71-14.32,2.58-1.56,4.72-3.84,6.13-6.6,.56,.11,1.13,.2,1.72,.25,4.54,.38,8.79-1.25,11.95-4.15,1.55,.59,3.22,.93,4.97,.93,7.73,0,14-6.27,14-14,0-.31-.03-.61-.05-.91,2.11-2.46,3.54-5.58,3.93-9.07,.01,.01,.03,.03,.04,.04-.43,7.72,4.37,14.54,11.31,16.66,2.19,4.88,7.08,8.28,12.77,8.28,1.56,0,3.05-.26,4.44-.73,1.09,.47,2.29,.73,3.56,.73,.72,0,1.41-.09,2.08-.25,1.65,1.99,4.14,3.25,6.92,3.25,1.65,0,3.19-.45,4.52-1.23,1.78,.93,3.76,1.54,5.88,1.72,.24,.02,.49,.03,.73,.04-.08,.48-.13,.97-.13,1.47,0,4.77,3.72,8.67,8.41,8.97,2.4,4.17,6.43,7.28,11.22,8.47,1.88,1.91,4.22,3.36,6.87,4.11,.5,.66,1.06,1.27,1.65,1.84-.09,.52-.15,1.06-.15,1.6,0,3.55,2.06,6.61,5.05,8.08-.03,.3-.05,.61-.05,.92,0,4.81,3.78,8.73,8.53,8.98-.97,1.43-1.53,3.16-1.53,5.02,0,4.97,4.03,9,9,9s9-4.03,9-9c0-2.41-.96-4.6-2.5-6.21,.83-.48,1.57-1.09,2.21-1.8,.1,0,.19,.01,.29,.01,4.97,0,9-4.03,9-9,0-1.52-.38-2.94-1.04-4.2,10.19-1.24,18.04-8.72,18.04-17.8,0-2.33-.53-4.54-1.47-6.58,5.13-3.28,8.47-8.51,8.47-14.42,0-2.17-.47-4.24-1.29-6.16,3.88-3.27,6.29-7.81,6.29-12.84,0-3.08-.9-5.97-2.49-8.5,1.59-2.53,2.49-5.43,2.49-8.5m-97.1-33.9c.08-.11,.14-.24,.22-.35,.08,.2,.17,.4,.26,.6-.16-.08-.31-.17-.47-.24"/>
            <path class="cls-1" d="M189.52,173.86s11-16.49,17.18-12.26c6.18,4.24,.77,36.64-11.65,37.44"/>
          </g>
        </g>
      </g>
    </g>
  </g>
</svg>