<?xml version="1.0" encoding="UTF-8"?>
<svg xmlns="http://www.w3.org/2000/svg" width="207" height="113.77" xmlns:xlink="http://www.w3.org/1999/xlink" viewBox="0 0 207 113.77">
  <defs>
    <style>
      .cls-1 {
        clip-path: url(#clippath);
      }

      .cls-2 {
        fill: none;
      }

      .cls-3 {
        fill: #00a99d;
      }

      .cls-4 {
        clip-path: url(#clippath-1);
      }
    </style>
    <clipPath id="clippath">
      <rect class="cls-2" width="207" height="113.77"/>
    </clipPath>
    <clipPath id="clippath-1">
      <rect class="cls-2" width="207" height="113.77"/>
    </clipPath>
  </defs>
  <g id="Calque_1" data-name="Calque 1"/>
  <g id="Calque_2" data-name="Calque 2">
    <g id="Haut_Femme" data-name="Haut Femme">
      <g id="Pull">
        <g class="cls-1">
          <g class="cls-4">
            <path class="cls-3" d="M96.51,27.11c0,.81-.07,1.64-.23,2.47-1.35,7.21-8.3,11.95-15.5,10.6l-44.23-8.31s-.07-.01-.11-.02l-28.38-5.34C3.39,25.63,0,21.55,0,16.79v-6.9C0,3.7,5.63-.97,11.72,.17l29.63,5.57s.07,.01,.11,.02l44.22,8.31c6.38,1.2,10.83,6.77,10.83,13.04"/>
            <path class="cls-3" d="M151.7,113.57c-17.68,2.13-54.83,.4-77.7-11.23l12.99-42.47-.02-.1c-1.05-.72-2.17-1.61-3.36-2.69-5.35-4.91-4.16-12.38-.8-19.6l-2.47-13.25c-1.38-7.4,4.53-13.77,13.28-13.77l31.38,9.88c8.76,0,12.43,13.74,11.05,21.14l-6.21,33.27c1.8,6.79,7.29,15.88,9.8,19.83,5.53,2.6,10.2,9.8,12.06,18.99"/>
            <path class="cls-3" d="M207,56.11v9.51c0,6.04-5.95,10.28-11.65,8.31l-27.38-9.44s-.03,0-.05-.02c-.03,0-.07-.02-.1-.03l-42.54-14.68c-5.51-1.9-8.96-7.04-8.96-12.55,0-1.44,.24-2.9,.73-4.33,2.4-6.94,9.96-10.62,16.89-8.23l42.39,14.63,.15,.05s.07,.02,.11,.03l24.49,8.45c3.54,1.22,5.92,4.56,5.92,8.31"/>
          </g>
        </g>
      </g>
    </g>
  </g>
</svg>